<?xml version="1.0" encoding="UTF-8"?>
<!DOCTYPE svg PUBLIC "-//W3C//DTD SVG 1.1//EN" "http://www.w3.org/Graphics/SVG/1.1/DTD/svg11.dtd">
<svg version="1.1" xmlns="http://www.w3.org/2000/svg" xmlns:xlink="http://www.w3.org/1999/xlink" x="0px" y="0px" width="550" height="550" viewBox="0, 0, 550, 550">
  <g id="layer1">
    <path d="M147.076,107.273 L150.808,121.2 C151.525,123.878 150.588,126.927 148.491,128.74 C141.446,134.832 134.844,141.435 128.751,148.479 C126.938,150.576 123.888,151.514 121.21,150.796 L107.285,147.065 C104.382,146.287 101.054,147.483 99.311,149.932 C91.418,161.026 84.581,172.87 78.921,185.252 C77.67,187.985 78.296,191.465 80.421,193.592 L90.618,203.786 C92.578,205.746 93.292,208.856 92.383,211.475 C89.328,220.273 86.911,229.293 85.157,238.44 C84.635,241.162 82.463,243.498 79.786,244.216 L65.858,247.947 C62.955,248.726 60.672,251.426 60.388,254.418 C59.099,267.971 59.099,281.646 60.388,295.199 C60.672,298.191 62.955,300.892 65.858,301.67 L79.786,305.402 C82.463,306.12 84.635,308.456 85.157,311.178 C87.85,325.217 92.107,338.956 97.826,352.057 C98.974,354.687 101.763,356.513 104.633,356.513 L142.773,356.513 C144.717,356.513 146.648,355.713 148.023,354.339 L373.933,128.419 C375.308,127.044 377.241,126.243 379.186,126.243 L501.946,126.243 C504.459,126.243 506.93,127.616 508.256,129.751 C523.98,155.055 535.55,182.934 542.364,211.936 C549.179,240.938 551.235,271.052 548.426,300.711 C545.617,330.37 537.944,359.563 525.806,386.77 C513.668,413.977 497.07,439.188 476.875,461.09 C456.68,482.993 432.897,501.579 406.763,515.881 C380.629,530.183 352.154,540.196 322.82,545.399 C293.486,550.601 263.304,550.992 233.845,546.549 C204.386,542.107 175.662,532.833 149.167,519.211 C147.096,518.146 145.586,516.054 145.226,513.753 C144.867,511.453 145.666,509 147.313,507.353 L197.842,456.824 C199.857,454.809 203.089,454.12 205.751,455.14 C216.351,459.2 227.309,462.323 238.457,464.46 C241.179,464.982 243.515,467.155 244.233,469.832 L247.965,483.76 C248.743,486.663 251.444,488.945 254.436,489.229 C267.989,490.518 281.664,490.518 295.217,489.229 C298.209,488.945 300.909,486.663 301.688,483.76 L305.419,469.832 C306.137,467.155 308.473,464.982 311.195,464.46 C320.342,462.706 329.362,460.289 338.16,457.234 C340.779,456.325 343.889,457.039 345.849,458.999 L356.043,469.196 C358.169,471.321 361.65,471.947 364.383,470.697 C376.765,465.036 388.609,458.199 399.703,450.307 C402.152,448.564 403.348,445.236 402.57,442.332 L398.838,428.407 C398.121,425.73 399.059,422.68 401.156,420.867 C408.2,414.774 414.803,408.172 420.896,401.127 C422.709,399.03 425.759,398.092 428.436,398.809 L442.361,402.541 C445.265,403.319 448.593,402.123 450.336,399.674 C458.229,388.58 465.066,376.736 470.726,364.354 C471.976,361.621 471.35,358.14 469.225,356.014 L459.025,345.829 C457.065,343.869 456.351,340.759 457.261,338.14 C460.315,329.341 462.732,320.322 464.486,311.175 C465.008,308.453 467.181,306.117 469.858,305.399 L483.786,301.668 C486.689,300.889 488.971,298.189 489.256,295.197 C490.544,281.643 490.544,267.969 489.256,254.415 C488.971,251.423 486.689,248.723 483.786,247.945 L469.858,244.213 C467.181,243.495 465.008,241.159 464.486,238.437 C461.794,224.398 457.536,210.659 451.817,197.558 C450.669,194.928 447.88,193.102 445.011,193.101 L406.871,193.101 C404.927,193.102 402.995,193.902 401.621,195.276 L175.711,421.196 C174.335,422.571 172.402,423.371 170.458,423.371 L47.698,423.371 C45.184,423.371 42.713,421.997 41.387,419.862 C25.664,394.558 14.094,366.679 7.28,337.677 C0.466,308.675 -1.59,278.561 1.219,248.902 C4.028,219.243 11.702,190.051 23.84,162.844 C35.978,135.637 52.576,110.427 72.771,88.524 C92.966,66.622 116.749,48.036 142.883,33.733 C169.017,19.431 197.492,9.418 226.826,4.215 C256.16,-0.987 286.341,-1.378 315.8,3.065 C345.259,7.507 373.983,16.781 400.478,30.402 C402.549,31.467 404.059,33.558 404.419,35.859 C404.779,38.16 403.979,40.613 402.332,42.259 L351.803,92.788 C349.788,94.804 346.556,95.492 343.894,94.473 C333.294,90.413 322.336,87.29 311.188,85.152 C308.466,84.63 306.13,82.457 305.412,79.78 L301.681,65.853 C300.902,62.949 298.202,60.666 295.21,60.381 C281.657,59.092 267.982,59.092 254.429,60.381 C251.436,60.666 248.736,62.949 247.958,65.853 L244.226,79.78 C243.508,82.457 241.172,84.63 238.45,85.152 C229.303,86.906 220.283,89.323 211.485,92.377 C208.866,93.287 205.756,92.573 203.796,90.613 L193.602,80.417 C191.476,78.291 187.996,77.664 185.262,78.914 C172.879,84.574 161.036,91.412 149.942,99.305 C147.493,101.048 146.297,104.376 147.075,107.279 z" fill="#FFBB00"/>
    <path d="M469.286,269.555 L416.732,216.981 C413.98,214.227 408.972,214.227 406.219,216.981 C403.468,219.733 398.461,219.733 395.709,216.981 L332.64,153.891 C329.889,151.138 329.889,146.129 332.64,143.376 C335.392,140.623 335.392,135.614 332.64,132.861 L280.086,80.287 C277.334,77.533 272.326,77.533 269.573,80.287 L185.485,164.406 C182.734,167.159 182.734,172.168 185.485,174.921 L238.042,227.495 C240.794,230.247 245.8,230.247 248.552,227.495 L259.065,216.98 C261.83,214.284 266.78,214.316 269.509,217.047 C272.239,219.777 272.27,224.73 269.575,227.495 L227.531,269.554 C224.765,272.24 219.824,272.203 217.098,269.476 C214.372,266.749 214.336,261.806 217.021,259.039 L227.531,248.524 C230.283,245.772 230.283,240.762 227.531,238.009 L174.974,185.435 C172.223,182.684 167.217,182.684 164.464,185.435 L80.375,269.553 C77.623,272.306 77.623,277.317 80.375,280.069 L132.93,332.641 C135.682,335.395 140.691,335.395 143.443,332.641 C146.195,329.89 151.201,329.89 153.953,332.641 L217.022,395.733 C219.773,398.486 219.773,403.494 217.022,406.246 C214.27,408.999 214.27,414.01 217.022,416.762 L269.576,469.334 C272.328,472.088 277.337,472.088 280.089,469.334 L364.177,385.216 C366.928,382.464 366.928,377.456 364.177,374.703 L311.607,322.142 C308.856,319.391 303.85,319.391 301.097,322.142 L290.584,332.655 C287.816,335.33 282.887,335.287 280.165,332.565 C277.444,329.842 277.401,324.911 280.075,322.142 L322.119,280.083 C324.887,277.408 329.816,277.451 332.538,280.173 C335.259,282.896 335.302,287.827 332.628,290.596 L322.118,301.112 C319.368,303.865 319.368,308.873 322.118,311.625 L374.675,364.2 C377.427,366.952 382.433,366.952 385.185,364.2 L469.275,280.083 C472.028,277.33 472.028,272.32 469.275,269.567 z" fill="#FF7700"/>
  </g>
  <defs/>
</svg>
